<?xml version="1.0" standalone="no"?>
<!DOCTYPE svg PUBLIC "-//W3C//DTD SVG 20010904//EN"
 "http://www.w3.org/TR/2001/REC-SVG-20010904/DTD/svg10.dtd">
<svg version="1.0" xmlns="http://www.w3.org/2000/svg"
 width="1280.000000pt" height="735.000000pt" viewBox="0 0 1280.000000 735.000000"
 preserveAspectRatio="xMidYMid meet">

<g transform="translate(0.000000,735.000000) scale(0.100000,-0.100000)"
fill="#000000" stroke="none">
<path d="M2 3678 l3 -3673 1905 -3 1905 -2 -671 671 -670 670 -139 -75 c-77
-41 -140 -74 -141 -73 -1 1 -99 265 -217 587 -119 322 -218 592 -222 601 -4
11 -50 28 -133 51 -481 134 -888 251 -895 258 -4 4 1041 1054 2324 2334 l2333
2326 -2692 0 -2692 0 2 -3672z"/>
<path d="M11435 1360 l-1360 -1360 1363 0 1362 0 0 1360 c0 748 -1 1360 -3
1360 -1 0 -614 -612 -1362 -1360z"/>
</g>
</svg>
